<svg width="60" height="49" viewBox="0 0 60 49" fill="none" xmlns="http://www.w3.org/2000/svg">
<path d="M41.7403 28.1154C41.7403 28.1722 41.7451 28.2053 41.7403 28.2432C41.6599 29.1239 41.5794 29.9998 41.4941 30.8805C41.4515 31.3113 41.4089 31.7422 41.3568 32.173C41.3474 32.263 41.2906 32.3577 41.2385 32.4382C40.3436 33.7639 39.4488 35.0849 38.5539 36.4106C36.9204 38.8253 35.2869 41.24 33.6535 43.6499C33.6014 43.7304 33.5493 43.8109 33.4736 43.934C33.5967 43.9435 33.6772 43.9529 33.7576 43.9529C34.3305 43.9671 34.8987 43.9766 35.4716 43.9861C36.8494 44.0098 38.2272 44.024 39.605 44.0476C40.7177 44.0666 41.8256 44.095 42.9382 44.1187C44.0414 44.1423 45.1446 44.1565 46.2478 44.1802C46.8633 44.1897 47.4788 44.2039 48.099 44.2134C49.3395 44.2323 50.58 44.2749 51.8205 44.2702C53.3546 44.2654 54.524 43.5978 55.2626 42.2342C55.6461 41.5288 55.8592 40.7712 55.9539 39.9805C56.0107 39.4881 56.0581 38.991 56.0391 38.5033C56.0155 37.8641 55.9302 37.2297 55.845 36.5952C55.7077 35.5678 55.5562 34.5451 55.4047 33.5224C55.2437 32.424 55.0827 31.3255 54.9265 30.2271C54.7844 29.2328 54.6424 28.2385 54.4956 27.2489C54.3488 26.231 54.2021 25.2178 54.0553 24.1998C53.9133 23.2197 53.7759 22.2444 53.6339 21.2643C53.4871 20.2416 53.3356 19.2189 53.1888 18.1915C53.0468 17.1924 52.9048 16.1887 52.758 15.1849C52.6112 14.1859 52.4692 13.1822 52.3177 12.1831C52.2088 11.4445 52.1093 10.7059 51.9815 9.97204C51.7826 8.84519 51.4559 7.75147 50.9257 6.72878C50.509 5.92861 49.9598 5.23735 49.2448 4.67865C48.5252 4.11996 47.7061 3.85955 46.797 3.91164C46.2999 3.94004 45.8264 4.08682 45.3766 4.29515C44.316 4.78755 43.4354 5.51669 42.6447 6.3642C42.0481 7.00812 41.5462 7.72307 41.0491 8.44747C38.1609 12.6187 35.268 16.79 32.3751 20.9613C29.2834 25.4213 26.1869 29.8767 23.0951 34.332C21.2439 37.0024 19.3784 39.6633 17.5461 42.3479C16.8027 43.4369 15.9694 44.4359 14.9799 45.3071C13.6731 46.4576 12.2053 47.3288 10.5292 47.8354C9.48288 48.1526 8.41283 48.2757 7.32859 48.1668C5.13169 47.9443 3.34197 46.95 1.96418 45.2171C1.16401 44.2086 0.666876 43.0581 0.363855 41.8176C0.0371616 40.4919 -0.0528008 39.1472 0.027689 37.7836C0.0845053 36.7799 0.250222 35.7903 0.392262 34.796C0.534303 33.816 0.676341 32.8406 0.818382 31.8605C0.979362 30.7715 1.13561 29.6778 1.29659 28.5889C1.45757 27.4904 1.61854 26.392 1.77952 25.2935C1.92157 24.3087 2.06835 23.3239 2.21512 22.3343C2.3619 21.3353 2.50394 20.3316 2.65071 19.3325C2.77855 18.4661 2.90165 17.5996 3.02948 16.7379C3.17626 15.7531 3.31831 14.7683 3.46508 13.7787C3.61659 12.7608 3.76337 11.7476 3.91488 10.7296C4.00484 10.1141 4.08533 9.49383 4.20369 8.88306C4.55406 7.06493 5.16957 5.34625 6.22067 3.80747C7.06818 2.57172 8.10508 1.53956 9.44973 0.843556C10.3114 0.398495 11.2205 0.133347 12.1864 0.0386526C14.0424 -0.141266 15.7421 0.313268 17.3283 1.26968C18.5403 1.99882 19.5867 2.92682 20.4958 4.0016C20.8746 4.44666 21.2344 4.91066 21.5705 5.3936C24.3214 9.3376 27.0581 13.2911 29.8042 17.2398C29.8563 17.3156 29.9083 17.3866 29.9841 17.4907C30.0551 17.4008 30.1119 17.325 30.1688 17.2493C31.2388 15.7152 32.3088 14.1764 33.3789 12.6424C34.9461 10.3934 36.518 8.14919 38.0757 5.89547C38.6486 5.0669 39.231 4.25253 39.9222 3.51866C40.8881 2.48649 41.9676 1.60584 43.2223 0.952452C44.174 0.455309 45.1872 0.142818 46.262 0.048124C48.8708 -0.183876 51.0393 0.71572 52.8053 2.61907C53.989 3.88796 54.775 5.39359 55.3052 7.0318C55.6367 8.06396 55.845 9.1198 55.9918 10.1946C56.1149 11.0894 56.2522 11.9843 56.38 12.8839C56.5268 13.8829 56.6688 14.8867 56.8109 15.8857C56.9529 16.88 57.095 17.8743 57.2417 18.8685C57.3885 19.9007 57.5353 20.9329 57.6868 21.965C57.8288 22.9498 57.9756 23.9347 58.1177 24.9242C58.236 25.7291 58.3449 26.534 58.4633 27.3389C58.6053 28.3237 58.7474 29.3133 58.8894 30.2981C59.0362 31.2971 59.1782 32.3009 59.325 33.2999C59.4576 34.2184 59.5949 35.1369 59.7227 36.0555C59.879 37.1634 60.0163 38.2713 59.9642 39.3982C59.8884 41.0127 59.5523 42.5657 58.7852 44.0003C57.8999 45.6527 56.6452 46.9074 54.8886 47.6223C54.3062 47.8591 53.7049 47.9916 53.0894 48.1053C52.597 48.1952 52.1093 48.2047 51.6122 48.2C50.3101 48.181 49.0081 48.1621 47.7061 48.1431C46.8443 48.1289 45.9874 48.1147 45.1256 48.1005C43.3975 48.0721 41.6693 48.039 39.9412 48.0106C39.0747 47.9964 38.2035 47.9822 37.3371 47.9632C36.4706 47.949 35.5995 47.9348 34.733 47.9159C33.0901 47.8875 31.4424 47.8638 29.7994 47.8259C28.5637 47.7928 27.9482 46.8174 27.9056 45.9983C27.8819 45.5249 28.0003 45.1082 28.2701 44.7105C30.5002 41.4057 32.7208 38.0914 34.9461 34.7818C35.9451 33.2951 36.9394 31.8132 37.9384 30.3312C38.0047 30.2365 38.0946 30.1418 38.1988 30.085C39.3399 29.4458 40.4856 28.8114 41.6314 28.1769C41.6551 28.1485 41.6883 28.1343 41.7403 28.1154ZM27.5978 20.9376C27.5457 20.8571 27.4984 20.7908 27.451 20.7198C25.4151 17.789 23.3745 14.863 21.3386 11.9322C20.3679 10.5307 19.4068 9.12454 18.4314 7.7278C17.9769 7.07915 17.4656 6.4731 16.9021 5.91441C16.1304 5.15212 15.2639 4.53188 14.2365 4.15784C12.9771 3.70331 11.7981 3.85482 10.7234 4.66918C10.1836 5.07637 9.74328 5.57825 9.37871 6.14641C8.73479 7.14543 8.36075 8.24862 8.10034 9.39915C7.821 10.6302 7.6979 11.8896 7.50851 13.1396C7.38541 13.9208 7.28597 14.7067 7.17234 15.488C7.0445 16.3828 6.91194 17.2777 6.77937 18.1725C6.63259 19.1905 6.48581 20.2037 6.33904 21.2217C6.2112 22.1023 6.08337 22.983 5.95553 23.8636C5.82296 24.7727 5.69512 25.6865 5.56255 26.5955C5.44892 27.372 5.33529 28.1438 5.22639 28.9203C5.11276 29.711 5.00385 30.5017 4.89022 31.2924C4.75765 32.2014 4.62508 33.1152 4.49251 34.0243C4.35994 34.9191 4.23684 35.814 4.09953 36.7089C3.92435 37.8594 3.85806 39.0099 4.03798 40.1652C4.16581 40.9843 4.40728 41.7655 4.85234 42.471C5.57202 43.6168 6.58524 44.2607 7.96777 44.2512C8.54067 44.2465 9.09937 44.1423 9.64859 43.9719C10.5955 43.6783 11.4194 43.167 12.1627 42.5278C12.9676 41.8365 13.6778 41.06 14.2649 40.1699C15.0461 38.991 15.87 37.8357 16.6749 36.6757C20.0886 31.7564 23.507 26.837 26.9208 21.9177C27.148 21.5957 27.3706 21.269 27.5978 20.9376Z" fill="url(#paint0_linear_621_9707)"/>
<defs>
<linearGradient id="paint0_linear_621_9707" x1="29.9782" y1="48.2072" x2="29.9782" y2="0.000678106" gradientUnits="userSpaceOnUse">
<stop stop-color="#EE5125"/>
<stop offset="1" stop-color="#E51F31"/>
</linearGradient>
</defs>
</svg>
